<svg width="20" height="20" viewBox="0 0 20 20" fill="none" xmlns="http://www.w3.org/2000/svg">
<g clip-path="url(#clip0_437_157)">
<path d="M5.8335 15C4.91266 15 4.17516 15.7458 4.17516 16.6667C4.17516 17.5875 4.91266 18.3333 5.8335 18.3333C6.75433 18.3333 7.50016 17.5875 7.50016 16.6667C7.50016 15.7458 6.75433 15 5.8335 15ZM0.833496 1.66667V3.33334H2.50016L5.496 9.65417L4.371 11.6958C4.24183 11.9375 4.16683 12.2083 4.16683 12.5C4.16683 13.4208 4.91266 14.1667 5.8335 14.1667H15.8335V12.5H6.18766C6.071 12.5 5.97933 12.4083 5.97933 12.2917C5.97933 12.2542 5.98766 12.2208 6.00433 12.1917L6.75016 10.8333H12.9585C13.5835 10.8333 14.1293 10.4875 14.4168 9.97501L17.396 4.56667C17.4627 4.45001 17.5002 4.31251 17.5002 4.16667C17.5002 3.70417 17.1252 3.33334 16.6668 3.33334H4.346L3.55433 1.66667H0.833496ZM14.1668 15C13.246 15 12.5085 15.7458 12.5085 16.6667C12.5085 17.5875 13.246 18.3333 14.1668 18.3333C15.0877 18.3333 15.8335 17.5875 15.8335 16.6667C15.8335 15.7458 15.0877 15 14.1668 15Z" fill="#22CB95"/>
</g>
<defs>
<clipPath id="clip0_437_157">
<rect width="20" height="20" fill="white"/>
</clipPath>
</defs>
</svg>
